<?xml version="1.0" encoding="UTF-8"?>
<svg viewBox="0 0 289.96332 479.42758" xmlns="http://www.w3.org/2000/svg" xmlns:xlink="http://www.w3.org/1999/xlink">
 <defs>
  <linearGradient id="a">
   <stop stop-color="#e7b380" offset="0"/>
   <stop stop-color="#eecaa6" offset="1"/>
  </linearGradient>
  <linearGradient id="d" x1="270.77" x2="267.96" y1="663.15" y2="661.83" gradientUnits="userSpaceOnUse">
   <stop stop-color="#e5af79" offset="0"/>
   <stop stop-color="#e5af79" stop-opacity="0" offset="1"/>
  </linearGradient>
  <linearGradient id="b">
   <stop stop-color="#babdb6" offset="0"/>
   <stop stop-color="#eeeeec" offset="1"/>
  </linearGradient>
  <linearGradient id="e" x1="427" x2="480" y1="1030.9" y2="1096.9" gradientUnits="userSpaceOnUse">
   <stop stop-color="#729fcf" offset="0"/>
   <stop stop-color="#3465a4" offset="1"/>
  </linearGradient>
  <linearGradient id="c" x1="438.8" x2="447.57" gradientUnits="userSpaceOnUse" xlink:href="#a"/>
  <linearGradient id="h" x1="500.62" x2="469.2" y1="1026.6" y2="990.8" gradientUnits="userSpaceOnUse" xlink:href="#b"/>
  <linearGradient id="g" x1="480.5" x2="453.84" y1="1035.6" y2="988.91" gradientUnits="userSpaceOnUse" xlink:href="#b"/>
  <linearGradient id="f" x1="482.12" x2="432.16" y1="1062.4" y2="994.17" gradientUnits="userSpaceOnUse" xlink:href="#b"/>
  <linearGradient id="i" x1="319.24" x2="353.32" y1="492.2" y2="482.97" gradientUnits="userSpaceOnUse" xlink:href="#a"/>
  <linearGradient id="j" x1="596.51" x2="627" y1="894.48" y2="876.67" gradientTransform="matrix(-1 0 0 1 918.36 -396.19)" gradientUnits="userSpaceOnUse" xlink:href="#a"/>
  <linearGradient id="k" x1="318.68" x2="316.91" y1="350.95" y2="391.96" gradientUnits="userSpaceOnUse" xlink:href="#a"/>
 </defs>
 <g transform="translate(-176.04 -194.34)">
  <path d="m324.78 194.85c-4.7442-0.12237-17.741 1.9165-24.312 6.4375-69.287 50.527-43.373 87.242-46.688 167.56l20.438-12.438s22.699 13.186 0.1875 52.406l62.406-1.8125 4.0625-4.4062c-0.94137-0.96443-1.7873-2.0309-2.4688-3.2188-5.4137-9.436 1.2228-25.614-5.25-29.406 0.0833-0.0468 0.16556-0.11213 0.25-0.15625 8.3788-4.3899 20.787 2.1316 28.188 15.031 3.2768 5.7114 5.0288 11.745 5.3125 17.188 8.4696 1.4361 16.894 3.2486 20.438 5.25 8.2606 4.665 30.094 5.8125 30.094 5.8125s24.888-44.158 4.5-63.875c9.8686-8.1855 18.989 20.538 20.5 14.094-1.0714-30.936-41.596-50.162-48.156-96.062-5.9955-41.947-30.119-70.538-73.062-69.938 6.2863-1.5392 6.409-2.3953 3.5625-2.4688z" fill="#2e3436" stroke="#000"/>
  <path d="m294.64 348.12h44.548s-0.70711 25.456 4.2426 58.69l-55.154 0.7071c15.556-20.506 6.364-59.397 6.364-59.397z" fill="url(#k)"/>
  <g transform="matrix(.99619 .08722 -.08722 .99619 -219.14 -449.94)">
   <path d="m559.18 695.47c1.6699 12.732-0.36054 20.312-5.152 20.94-2.026 0.26575-5.3819 6.9148-7.2641 4.0159-2.5691-3.957-0.97146-14.082-1.9353-21.43-1.67-12.732-7.1395-25.062-2.348-25.69s15.029 9.433 16.699 22.165z" fill="#e8b686"/>
   <path d="m642.13 694.97c-1.6699 12.732 0.36054 20.312 5.152 20.94 2.026 0.26575 5.3819 6.9148 7.2641 4.0159 2.5691-3.957 0.97146-14.082 1.9353-21.43 1.67-12.732 7.1395-25.062 2.348-25.69s-15.029 9.433-16.699 22.165z" fill="#e8b686"/>
   <path d="m600.4 619.31c-25.236 2.1029-45.66 23.31-51.604 47.258-2.2427 9.2532-1.7064 18.869-1.6632 28.294 2.0938 22.924 14.178 45.175 33.066 58.46 6.2702 4.1144 13.422 7.715 20.932 8.3106 20.908-4.1914 36.795-21.377 45.42-40.172 5.2738-11.385 7.9914-24.026 7.1551-36.575 1.4961-26.467-15.072-53.363-40.055-62.612-4.2649-1.557-8.7311-2.5573-13.252-2.9653z" fill="#eecaa6"/>
   <path d="m584.75 666.86 5.75 5.25-1.25 14-8-12s6.25-4.75 3.5-7.25z" fill="#e8b888"/>
   <g transform="translate(-13.25,-4.25)">
    <path d="m589.5 676.87c-7.2245-2.1867-14.752 0.45031-19.139 6.0591 0.70971 6.9124 5.4464 13.043 12.513 15.182 7.2345 2.1898 14.763-0.46429 19.148-6.089-1e-3 -0.01 0.0103-0.0201 9e-3 -0.0299-0.73409-6.8844-5.488-12.991-12.531-15.123z" fill="#fffef9" opacity=".85338"/>
    <path d="m584.06 676.09c-5.3705 0.082-10.429 2.6372-13.719 6.8438 0.57664 5.6164 3.8291 10.7 8.8125 13.562 6.2386-0.0681 11.281-5.1515 11.281-11.406 0-3.6074-1.6975-6.7857-4.3125-8.875-0.68411-0.0692-1.3854-0.13534-2.0625-0.125z" fill="#729fcf" opacity=".85338"/>
    <path transform="matrix(.66667 0 0 .66667 200.58 249.49)" d="m576.29 653.55c0 4.1005-3.3241 7.4246-7.4246 7.4246s-7.4246-3.3241-7.4246-7.4246 3.3241-7.4246 7.4246-7.4246 7.4246 3.3241 7.4246 7.4246z" fill="#204a87"/>
    <path transform="matrix(.28571 0 0 .28571 420.12 495.64)" d="m576.29 653.55c0 4.1005-3.3241 7.4246-7.4246 7.4246s-7.4246-3.3241-7.4246-7.4246 3.3241-7.4246 7.4246-7.4246 7.4246 3.3241 7.4246 7.4246z" fill="#fdf6ed"/>
    <path transform="matrix(.16667 0 0 .16667 482.36 581.04)" d="m576.29 653.55c0 4.1005-3.3241 7.4246-7.4246 7.4246s-7.4246-3.3241-7.4246-7.4246 3.3241-7.4246 7.4246-7.4246 7.4246 3.3241 7.4246 7.4246z" fill="#fdf6ed"/>
    <path d="m590.62 682.36-5.125 2.125 6 0.375-0.875-2.5z" fill="#fdf6ed"/>
    <path d="m584.0625,676.34375c-5.37051.082-10.42863,2.63715-13.71875,6.84375 .0294.28685.0505.5599.0937.84375 4.28809-3.74715 10.49291-5.98563 17.0625-6.0625h.1875c-.47219-.54767-.99641-1.0477-1.5625-1.5-.68411-.0692-1.38545-.13534-2.0625-.125z" fill="#729fcf" opacity=".85338"/>
    <path d="m583.09 675.26c-3.673 0.0561-7.2075 1.2489-10.156 3.3125-1.9051-0.23435-3.8734-0.8191-4.5625-2.375 0.50021 1.3102 1.4528 2.4004 2.6875 3.0625-2.5997-0.31236-5.3091-1.1257-6.25-3.25 0.78704 2.0616 2.4263 3.7161 4.5 4.5312-3.1744-0.46392-6.3222-1.5363-7.4688-4.125 1.376 3.6044 4.7066 6.2728 8.7812 6.5938 0.0127-0.18223 0.0565-0.35936 0.0937-0.53125 4.4657-4.9613 11.533-7.2177 18.344-5.1562 6.6032 1.9987 11.191 7.4925 12.344 13.844-0.88227-6.8921-5.7003-12.982-12.781-15.125-1.8489-0.55963-3.6987-0.80925-5.5312-0.78125z" fill="#2e3436"/>
   </g>
   <path d="m633 671.86s5.25-7 3.5-9.25 11.75-2.5 11.75-2.5 0.75 17.25-3.75 18.5-11.25-6.25-11.5-6.75z" fill="#e8b888"/>
   <path d="m624.86 672.39c7.2245-2.1867 14.752 0.45031 19.139 6.0591-0.70971 6.9124-5.4464 13.043-12.513 15.182-7.2345 2.1898-14.763-0.46429-19.148-6.089 1e-3 -0.01-0.0103-0.0201-9e-3 -0.0299 0.73409-6.8844 5.488-12.991 12.531-15.123z" fill="#fffef9" opacity=".85338"/>
   <path d="m626.33 694.49c-5.3705-0.082-10.429-2.6372-13.719-6.8438 0.57664-5.6164 3.8291-10.7 8.8125-13.562 6.2386 0.0681 11.281 5.1515 11.281 11.406 0 3.6074-1.6975 6.7857-4.3125 8.875-0.68411 0.0692-1.3854 0.13534-2.0625 0.125z" fill="#729fcf" opacity=".85338"/>
   <path transform="matrix(-.66667 0 0 .66667 999.46 248.37)" d="m576.29 653.55c0 4.1005-3.3241 7.4246-7.4246 7.4246s-7.4246-3.3241-7.4246-7.4246 3.3241-7.4246 7.4246-7.4246 7.4246 3.3241 7.4246 7.4246z" fill="#204a87"/>
   <path transform="matrix(-.28571 0 0 .28571 785.4 493.81)" d="m576.29 653.55c0 4.1005-3.3241 7.4246-7.4246 7.4246s-7.4246-3.3241-7.4246-7.4246 3.3241-7.4246 7.4246-7.4246 7.4246 3.3241 7.4246 7.4246z" fill="#fdf6ed"/>
   <path transform="matrix(-.16667 0 0 .16667 713.61 578.33)" d="m576.29 653.55c0 4.1005-3.3241 7.4246-7.4246 7.4246s-7.4246-3.3241-7.4246-7.4246 3.3241-7.4246 7.4246-7.4246 7.4246 3.3241 7.4246 7.4246z" fill="#fdf6ed"/>
   <path d="m631.52 678.23-5.125 2.125 6 0.375-0.875-2.5z" fill="#fdf6ed"/>
   <path d="m557.98 660.96c-0.7888-0.15227-2.5059 0.74923-0.74839 0.57186 9.5353 0.66197 27.381 1.7901 31.633 11.305 0.8546 0.80633 2.6678 0.51795 1.75-0.92368-4.4348-10.198-23.07-10.757-32.635-10.953z" fill="#2e3436" opacity=".85338"/>
   <path d="m631.27 670.77c3.673 0.0561 7.2075 1.2489 10.156 3.3125 1.9051-0.23435 3.8734-0.8191 4.5625-2.375-0.50021 1.3102-1.4528 2.4004-2.6875 3.0625 2.5997-0.31236 5.3091-1.1257 6.25-3.25-0.78704 2.0616-2.4263 3.7161-4.5 4.5312 3.1744-0.46392 6.3222-1.5363 7.4688-4.125-1.376 3.6044-4.7066 6.2728-8.7812 6.5938-0.0127-0.18223-0.0565-0.35936-0.0937-0.53125-4.4657-4.9613-11.533-7.2177-18.344-5.1562-6.6032 1.9987-11.191 7.4925-12.344 13.844 0.88227-6.8921 5.7003-12.982 12.781-15.125 1.8489-0.55963 3.6987-0.80925 5.5312-0.78125z" fill="#2e3436"/>
   <path d="m646.73 660.02c0.7888-0.15227 2.5059 0.74923 0.74839 0.57186-9.5353 0.66197-27.381 1.7901-31.633 11.305-0.8546 0.80633-2.6678 0.51795-1.75-0.92368 4.4348-10.198 23.07-10.757 32.635-10.953z" fill="#2e3436" opacity=".85338"/>
   <path d="m589.75 714.06 5.1562 3.25c3.3024 0.5568 6.1579 0.59609 9.0938 0.21875l6.25-3.4688c-7.2717 1.9445-12.138 2.2981-20.5 0z" fill="#2e3436" opacity=".33459"/>
   <path d="m585.26 730.61 12.152 0.60095c1.431 2.6912 3.7458 0.96303 4.2929 0.38388l10.326-0.0455-8.1036 3.5607-8.3436 0.26517-10.323-4.7652z" fill="#ef6f66"/>
   <path d="m586.82 731.77 8.5 3.375 5.75-0.25 9.9357-3.0732c-9.1721 11.824-16.366 12.653-24.186-0.0518z" fill="#f28881"/>
   <path d="m582.5 728.11s13.75 15.75 34 0.75" fill="none" stroke="#a40000"/>
   <path d="m594.75,737.36218h7.25a.5,.5 0 0,1 .5.5 .5,.5 0 0,1 -.5.5h-7.25a.5,.5 0 0,1 -.5-.5 .5,.5 0 0,1 .5-.5" fill="#fff" opacity=".33459"/>
   <path d="m590.12 732.74 5.625-0.125 2 2.25-7.625-1.125v-1z" fill="#a40000" opacity=".33459"/>
  </g>
  <path d="m330.28 210.75c-24.558-2.3393-46.55 10.964-57.383 32.783-7.4561 21.43 9.1655-6.1713 24.675-0.6639-1.8623 4.4139 0.82552 6.1924-9.7564 9.3718 11.735 5.1716 21.335-2.4592 31.932-9.5768 0.0324 1.4539-1.2655 4.6127 3.2583 7.9929 11.596-37.821 20.811-1.1372 18.38 5.4844 9.9177-11.969 11.482 1.4827 14.071 9.7678 9.0738-6.0731 2.4428-14.455 9.9683-8.9798 1.4325 1.6832 5.4313-0.13994 3.8792-3.2041-4.2052-13.283-10.198-26.911-20.789-36.212-5.3744-3.7585-11.742-5.9893-18.235-6.7637z" fill="#2e3436"/>
  <path d="m265.32 398.91c9.8702-0.54635 33.304-9.1414 48.344-7.9219 23.097 1.8728 25.097 0.89884 51.512 4.7394 18.075 2.6279 22.037 1.9031 29.72 3.8787 6.9705 1.7923 10.337 3.0192 13.154 11.003 5.7595 16.319 37.303 81.454 57.154 122.7 9.3943 19.518-67.872 89.753-67.872 89.753l-13.002-7.3119c15.5-9.5 56.046-79.799 56.046-79.799-32-42-50.282-89.54-50.282-89.54s-16.971 135.06-31.82 144.96-37.477-18.385-38.891-41.012-47.376 34.648-57.983-3.5355c-7.3727-26.542-9.6206-61.967-10.306-81.101" fill="#eecaa6"/>
  <path d="m310.86 462.68s20.5 22 5.5 29.5-25 6-25 6l19.5-35.5z" fill="url(#j)"/>
  <path d="m339.15 460.68s-25.534 15.883-13.013 27.04 22.566 12.32 22.566 12.32l-9.5531-39.36z" fill="url(#i)"/>
  <path d="m246.97 458.43s14.849-61.518 11.314-60.811 12.021-0.70711 12.021-0.70711l-0.7071 67.882 50.912 18.385 51.619-30.406-13.435-57.904 10.607 0.62868-1.9676 4.298 23.888 53.685s-27.092 130.74-5.7279 180.43c-26.977 13.302-121.12 15.656-137.38-11.435 24.364-25.163-0.43503-164.05-1.1421-164.05z" fill="#2e3436"/>
  <g transform="translate(-173.36 -425.34)">
   <path d="m424 953.86 86.619 40-29.619 100.5-69.299-51.5 12.299-89z" fill="#3465a4"/>
   <path d="m413.5 959.36 86.619 40-20.119 94.5-78.799-45.5 12.299-89z" fill="url(#h)" stroke="#888a85"/>
   <path d="m404.5 961.36 86.619 40-11.119 93.5-87.799-44.5 12.299-89z" fill="url(#g)" stroke="#888a85"/>
   <path d="m395 964.86 86.619 40-1.6188 92-97.299-43 12.299-89z" fill="url(#f)" stroke="#888a85"/>
   <path d="m374 964.86 92.982 40 13.018 92-99.14-42.5-6.8596-89.5z" fill="url(#e)"/>
  </g>
  <path d="m250.8 452.06-42.147 92.056s25.154 77 38.235 91.496c0 0-28.997-9.2791-25.461-10.693 0 0-27.389-52.487-45.389-82.487 15-14 47.185-126.43 47.185-126.43s-4.5379-14.287 37.102-16.592" fill="#eecaa6"/>
  <path d="m260.61 635.16 17.386 16.339 1.0473 5.0273-20.109-11.311 9.4261 9.426 13.197 6.7031-7.5409 7.7503-20.318-1.8853-17.386-13.615-15.92-30.582 40.218 12.149z" fill="#eecaa6"/>
  <path d="m268.83 654.78c-0.36575 0.3111-9.098 7.7855-14.256 12.331l19.255 1.7774 7.5169-7.7392-12.516-6.369z" fill="url(#d)"/>
  <path d="m373.84 621.5s-21.015 5.9411-21.646 13.304c0.32778 3.0987 2.2759 3.3769 3.9415 2.2703 15.217-10.109 11.2-3.0669 11.2-3.0669l-9.2728 14.209-11.78 15.567c0.6311 4.2072 4.628 2.1036 4.628 2.1036l17.04-19.985-14.094 26.296c1.2622 2.9451 5.0488 0.8414 5.0488 0.8414l16.198-27.137-8.625 24.823c1.4726 2.5244 5.0488-1.2621 5.0488-1.2621l11.149-23.561-4.2073 19.143c0.84146 1.8933 3.1555-0.8416 3.1555-0.8416l6.5213-17.671 8.5142-15.219 2.6888-9.7134-11.624-8.5155-13.884 8.4147z" fill="#eecaa6"/>
  <path d="m440.22 535.09s4.9498-6.7175 7.0711-4.9498-8.4853-1.0606-8.4853-1.0606l1.4142 6.0104z" fill="url(#c)"/>
 </g>
</svg>
